<svg id="Layer_1" data-name="Layer 1" xmlns="http://www.w3.org/2000/svg" width="1080" height="1080" viewBox="0 0 1080 1080"><defs><style>.cls-1{fill:#2e6edf;fill-rule:evenodd;}</style></defs><path class="cls-1" d="M754.52,587.88a177.69,177.69,0,0,1,1.63,24,171.1,171.1,0,0,1-2.5,29.59A173.39,173.39,0,0,1,582.75,785.3H323.85V587.88h187v53.61H377.46v90.2H583.07a119.82,119.82,0,0,0,115.78-90.2,118.29,118.29,0,0,0,3.69-29.59,118.43,118.43,0,0,0-24-71.93,119.47,119.47,0,0,0,21.59-47.85c.43-2.26.81-4.51,1.18-6.76a119.6,119.6,0,0,0,1.19-17.26,118.29,118.29,0,0,0-3.69-29.59,119.82,119.82,0,0,0-115.78-90.2H377.46v90.2H638.05l-32.34,53.61-29,48.1H513.57l29-48.1H323.85V294.7H583.13a173.13,173.13,0,0,1,173,173.4,178.47,178.47,0,0,1-1.63,24A171.17,171.17,0,0,1,740.64,540,171.47,171.47,0,0,1,754.52,587.88Z"/></svg>