<svg id="Layer_1" data-name="Layer 1" xmlns="http://www.w3.org/2000/svg" width="2000" height="457.36" viewBox="0 0 2000 457.36"><defs><style>.cls-1{fill:#2e6edf;fill-rule:evenodd;}.cls-2{fill:#1e2023;}</style></defs><path class="cls-1" d="M819.83,258.57a112.2,112.2,0,0,1,1,15A108.2,108.2,0,0,1,712.61,381.8H551V258.57H667.75V292H584.46v56.3H712.8A74.79,74.79,0,0,0,785.08,292a74,74,0,0,0,2.3-18.47,76.29,76.29,0,0,0-.74-10.77,74.77,74.77,0,0,0-14.21-34.13,74.65,74.65,0,0,0,13.47-29.87c.27-1.4.5-2.81.74-4.21a76.54,76.54,0,0,0,.74-10.78,74,74,0,0,0-2.3-18.47A74.81,74.81,0,0,0,712.8,109H584.46v56.3H747.12l-20.18,33.46-18.08,30H669.42l18.12-30H551V75.57H712.84a108.06,108.06,0,0,1,108,108.23,112.66,112.66,0,0,1-1,15,107,107,0,0,1-8.67,29.87A107.38,107.38,0,0,1,819.83,258.57Z"/><path class="cls-2" d="M1027.39,262.52c0,44.36-30.73,73.22-72.41,73.22-19.51,0-36.08-6.68-47.3-20.31v18.44h-31.8V135.6h33.4v73c11.49-12.83,27.53-19,45.7-19C996.66,189.58,1027.39,218.17,1027.39,262.52Zm-33.94,0c0-27.25-18.17-44.62-42.21-44.62s-42.49,17.37-42.49,44.62,18.44,44.63,42.49,44.63S993.45,289.78,993.45,262.52Z"/><path class="cls-2" d="M1047.41,262.52c0-42.75,32.07-72.94,75.89-72.94,44.36,0,76.16,30.19,76.16,72.94s-31.8,73.22-76.16,73.22C1079.48,335.74,1047.41,305.28,1047.41,262.52Zm118.38,0c0-27.25-18.17-44.62-42.49-44.62-24,0-42.22,17.37-42.22,44.62s18.17,44.63,42.22,44.63C1147.62,307.15,1165.79,289.78,1165.79,262.52Z"/><path class="cls-2" d="M1231.5,135.6h33.4V333.87h-33.4Z"/><path class="cls-2" d="M1297,262.52c0-42.75,32.06-72.94,75.89-72.94,44.35,0,76.15,30.19,76.15,72.94s-31.8,73.22-76.15,73.22C1329,335.74,1297,305.28,1297,262.52Zm118.37,0c0-27.25-18.17-44.62-42.48-44.62-24,0-42.22,17.37-42.22,44.62s18.17,44.63,42.22,44.63C1397.16,307.15,1415.33,289.78,1415.33,262.52Z"/></svg>