<svg xmlns="http://www.w3.org/2000/svg" xmlns:xlink="http://www.w3.org/1999/xlink" viewBox="0 0 1920 1080"><style>.B{stroke-linejoin:round}.C{fill:none}.D{stroke:#1e1e1e}.E{stroke-linecap:round}.F{stroke-width:3}.G{fill:#f5f5f5}.H{fill:#ef712b}.I{fill:#5382a1}.J{fill:#ff8438}.K{stroke-miterlimit:10}</style><defs><linearGradient id="A" x1="1063.66" y1="239.77" x2="1056.91" y2="278.08" xlink:href="#r"><stop offset="0" stop-color="#e39f3a"/><stop offset="1" stop-color="#d33929"/></linearGradient><linearGradient id="B" x1="1089.76" y1="274.39" x2="1087.57" y2="286.82" xlink:href="#r"><stop offset="0" stop-color="#faae42"/><stop offset="1" stop-color="#ef3e31"/></linearGradient><linearGradient id="C" x1="1089.76" y1="274.4" x2="1087.57" y2="286.83" xlink:href="#A"/><linearGradient id="D" x1="1076.17" y1="238.71" x2="1066.95" y2="291.01" xlink:href="#B"/><linearGradient id="E" x1="1075.61" y1="241.88" x2="1068.86" y2="280.18" xlink:href="#A"/><linearGradient id="F" x1="1159.937" y1="325.202" x2="1187.465" y2="349.122" xlink:href="#r"><stop offset="0" stop-color="#5a9fd4"/><stop offset="1" stop-color="#306998"/></linearGradient><linearGradient id="G" x1="1198.121" y1="363.594" x2="1188.294" y2="349.541" xlink:href="#r"><stop offset="0" stop-color="#ffd43b"/><stop offset="1" stop-color="#ffe873"/></linearGradient><linearGradient id="H" x1="662.92" y1="-354.05" x2="662.91" y2="-354.04" gradientTransform="matrix(1981.58 0 0 -1980.1 -1312618.05 -700581.59)" xlink:href="#r"><stop offset="0" stop-color="#fb7655"/><stop offset=".41" stop-color="#e42b1e"/><stop offset=".99" stop-color="#900"/></linearGradient><linearGradient id="I" x1="660.59" y1="-353.82" x2="660.57" y2="-353.81" gradientTransform="matrix(588.89 0 0 -1091.48 -388009.82 -385726.96)" xlink:href="#r"><stop offset="0" stop-color="#871101"/><stop offset=".99" stop-color="#911209"/></linearGradient><linearGradient id="J" x1="992.871" y1="471.352" x2="992.871" y2="462.765" xlink:href="#I"/><linearGradient id="K" x1="968.586" y1="447.607" x2="968.586" y2="457.088" xlink:href="#r"><stop offset="0" stop-color="#fff"/><stop offset=".23" stop-color="#e57252"/><stop offset=".46" stop-color="#de3b20"/><stop offset=".99" stop-color="#a60003"/></linearGradient><linearGradient id="L" x1="985.202" y1="439.532" x2="985.202" y2="449.964" xlink:href="#r"><stop offset="0" stop-color="#fff"/><stop offset=".23" stop-color="#e4714e"/><stop offset=".56" stop-color="#be1a0d"/><stop offset=".99" stop-color="#a80d00"/></linearGradient><linearGradient id="M" x1="661.72" y1="-355.62" x2="661.73" y2="-355.63" gradientTransform="matrix(921.02 0 0 -648.55 -608463.84 -230214.16)" xlink:href="#r"><stop offset="0" stop-color="#fff"/><stop offset=".18" stop-color="#e46342"/><stop offset=".4" stop-color="#c82410"/><stop offset=".99" stop-color="#a80d00"/></linearGradient><linearGradient id="N" x1="661.44" y1="-360.24" x2="661.46" y2="-360.22" gradientTransform="matrix(691.02 0 0 -237.29 -456082.04 -85062.45)" xlink:href="#r"><stop offset="0" stop-color="#fff"/><stop offset=".54" stop-color="#c81f11"/><stop offset=".99" stop-color="#bf0905"/></linearGradient><linearGradient id="O" x1="959.153" y1="442.869" x2="959.153" y2="457.056" xlink:href="#r"><stop offset="0" stop-color="#fff"/><stop offset=".31" stop-color="#de4024"/><stop offset=".99" stop-color="#bf190b"/></linearGradient><linearGradient id="P" x1="663.13" y1="-354.49" x2="663.16" y2="-354.47" gradientTransform="matrix(1544.41 0 0 -1542.21 -1023197.91 -546245.88)" xlink:href="#r"><stop offset="0" stop-color="#bd0012"/><stop offset=".07" stop-color="#fff"/><stop offset=".17" stop-color="#fff"/><stop offset=".27" stop-color="#c82f1c"/><stop offset=".33" stop-color="#820c01"/><stop offset=".46" stop-color="#a31601"/><stop offset=".72" stop-color="#b31301"/><stop offset=".99" stop-color="#e82609"/></linearGradient><linearGradient id="Q" x1="979.217" y1="455.02" x2="966.809" y2="455.02" xlink:href="#r"><stop offset="0" stop-color="#8c0c01"/><stop offset=".54" stop-color="#990c00"/><stop offset=".99" stop-color="#a80d0e"/></linearGradient><linearGradient id="R" x1="661.72" y1="-354.27" x2="661.71" y2="-354.26" gradientTransform="matrix(917.99 0 0 -1031.18 -606449.78 -364874.64)" xlink:href="#r"><stop offset="0" stop-color="#7e110b"/><stop offset=".99" stop-color="#9e0c00"/></linearGradient><linearGradient id="S" x1="1011.117" y1="428.662" x2="1003.335" y2="428.662" xlink:href="#r"><stop offset="0" stop-color="#79130d"/><stop offset=".99" stop-color="#9e120b"/></linearGradient><linearGradient id="V" x1="663.49" y1="-353.45" x2="663.48" y2="-353.43" gradientTransform="matrix(391.92 0 0 -792.34 -259064.16 -279584.07)" xlink:href="#r"><stop offset="0" stop-color="#8b2114"/><stop offset=".43" stop-color="#9e100a"/><stop offset=".99" stop-color="#b3100c"/></linearGradient><linearGradient id="W" x1="661.2" y1="-358.5" x2="661.21" y2="-358.52" gradientTransform="matrix(762.62 0 0 -318.55 -503249.3 -113782.26)" xlink:href="#r"><stop offset="0" stop-color="#b31000"/><stop offset=".44" stop-color="#910f08"/><stop offset=".99" stop-color="#791c12"/></linearGradient><linearGradient id="X" x1="563.97" y1="592.56" x2="638.45" y2="592.56" xlink:href="#r"><stop offset="0" stop-color="#ff8438"/><stop offset=".19" stop-color="#fd9657"/><stop offset=".6" stop-color="#f9c4a4"/><stop offset="1" stop-color="#f5f5f5"/></linearGradient><linearGradient id="Y" x1="526.93" y1="637.44" x2="550.12" y2="637.44" xlink:href="#r"><stop offset="0" stop-color="#f5f5f5"/><stop offset=".06" stop-color="#f6f1de"/><stop offset=".26" stop-color="#f9e39c"/><stop offset=".45" stop-color="#fbd965"/><stop offset=".62" stop-color="#fdd03a"/><stop offset=".78" stop-color="#feca1b"/><stop offset=".91" stop-color="#ffc608"/><stop offset="1" stop-color="#ffc501"/></linearGradient><linearGradient id="Z" x1="601.21" y1="687.33" x2="601.21" y2="767.11" xlink:href="#r"><stop offset="0" stop-color="#f5f5f5"/><stop offset=".31" stop-color="#dfebf8"/><stop offset=".74" stop-color="#c6e0fb"/><stop offset="1" stop-color="#bddcfc"/></linearGradient><linearGradient id="a" x1="559.37" y1="310.1" x2="763.98" y2="310.1" xlink:href="#r"><stop offset="0" stop-color="#f5f5f5"/><stop offset=".19" stop-color="#f7d9c7"/><stop offset=".47" stop-color="#fbb58a"/><stop offset=".71" stop-color="#fd9a5d"/><stop offset=".89" stop-color="#fe8a42"/><stop offset="1" stop-color="#ff8438"/></linearGradient><linearGradient id="b" x1="559.37" y1="287.55" x2="738.56" y2="287.55" xlink:href="#Z"/><linearGradient id="c" x1="559.37" y1="265.01" x2="721.95" y2="265.01" xlink:href="#r"><stop offset="0" stop-color="#f5f5f5"/><stop offset="1" stop-color="#bf3af0"/></linearGradient><linearGradient id="d" x1="559.39" y1="242.46" x2="787.37" y2="242.46" xlink:href="#Y"/><linearGradient id="e" x1="935.13" y1="653.18" x2="935.13" y2="971.64" xlink:href="#r"><stop offset="0" stop-color="#c3c3c3"/><stop offset=".19" stop-color="#d1d1d1"/><stop offset=".55" stop-color="#f4f4f4"/><stop offset=".56" stop-color="#f5f5f5"/></linearGradient><linearGradient id="g" x1="944.95" y1="823.55" x2="944.95" y2="683.12" xlink:href="#r"><stop offset="0" stop-color="#fa215a"/><stop offset="1" stop-color="#bf3af0"/></linearGradient><linearGradient id="h" x1="1256.09" y1="715.86" x2="1256.09" y2="673.51" xlink:href="#Y"/><linearGradient id="i" x1="1258.02" y1="715.86" x2="1258.02" y2="673.51" xlink:href="#Y"/><linearGradient id="j" x1="1256.03" y1="671.45" x2="1256.03" y2="615.28" xlink:href="#a"/><linearGradient id="k" x1="1250.34" y1="671.45" x2="1250.34" y2="615.28" xlink:href="#a"/><linearGradient id="l" x1="1330.8" y1="669.74" x2="1330.8" y2="617.19" xlink:href="#Z"/><linearGradient id="m" x1="1340.28" y1="669.74" x2="1340.28" y2="617.19" xlink:href="#r"><stop offset="0" stop-color="#f5f5f5"/><stop offset=".16" stop-color="#eaf0f6"/><stop offset=".57" stop-color="#cfe4fa"/><stop offset=".74" stop-color="#c6e0fb"/><stop offset="1" stop-color="#bddcfc"/></linearGradient><linearGradient id="n" x1="1334.89" y1="718.85" x2="1334.89" y2="674.42" xlink:href="#c"/><linearGradient id="o" x1="1087.16" y1="240.64" x2="1077.94" y2="292.95" xlink:href="#B"/><linearGradient id="r" gradientUnits="userSpaceOnUse"/><radialGradient id="T" cx="661.7" cy="-355.2" r=".01" gradientTransform="matrix(909.23 0 0 -475.1 -600641.22 -168320.29)" xlink:href="#r"><stop offset="0" stop-color="#a80d00"/><stop offset=".99" stop-color="#7e0e08"/></radialGradient><radialGradient id="U" cx="662.49" cy="-353.62" r=".02" gradientTransform="matrix(951.41 0 0 -740.63 -629322.88 -261452.55)" xlink:href="#r"><stop offset="0" stop-color="#a30c00"/><stop offset=".99" stop-color="#800e08"/></radialGradient><path id="p" d="M624.73 338l2.79 8.56a.8.8 0 00.76.56h9a.8.8 0 01.47 1.45l-7.29 5.29a.81.81 0 00-.29.9l2.78 8.57a.8.8 0 01-1.23.89l-7.28-5.22a.78.78 0 00-.94 0l-7.29 5.29a.8.8 0 01-1.23-.89l2.78-8.57a.81.81 0 00-.29-.9l-7.29-5.29a.8.8 0 01.47-1.45h9a.8.8 0 00.76-.56l2.79-8.56a.8.8 0 011.53-.07z"/><path id="q" d="M1062.55 271.64l.18.23-.75-1.15c12.32 8.11 20.73 2.36 20.73 2.36-5.55-3.22-17.36-18.63-17.36-18.63 10.28 8.76 14.73 11.06 14.73 11.06-2.65-2.19-10.09-12.91-10.09-12.91 6 6 17.77 14.44 17.77 14.44 3.23-9-2.71-16.93-3.18-17.55l-.08-.06-7.13-7.24h-9.58a3 3 0 00-.61 0 10.68 10.68 0 00-5.47 1.84 10.86 10.86 0 00-3.68 4.3 10 10 0 00-1 4.67v12.35l5 5.35a9.67 9.67 0 00.52.94z"/><clipPath id="f"><circle cx="935.13" cy="626.75" r="214.8" class="C"/></clipPath></defs><g class="G"><rect x="1141.85" y="537.41" width="294.6" height="238.33" rx="8.95"/><rect x="461.67" y="533.46" width="303.91" height="250.25" rx="9.32"/><rect x="491.72" y="184.73" width="375.7" height="333.83" rx="10.62"/></g><path d="M558.54 476.74h228" stroke="#c3c3c3" class="B C E F"/><g fill="#ffc501"><path d="M576.16 338l2.78 8.56a.81.81 0 00.76.56h9a.8.8 0 01.47 1.45l-7.28 5.29a.83.83 0 00-.3.9l2.79 8.57a.8.8 0 01-1.24.89l-7.27-5.22a.79.79 0 00-1 0l-7.28 5.29a.8.8 0 01-1.24-.89l2.79-8.57a.82.82 0 00-.29-.9l-7.29-5.29a.8.8 0 01.47-1.45h9a.81.81 0 00.76-.56l2.78-8.56a.8.8 0 011.59-.07z"/><use xlink:href="#p"/><path d="M673.31 338l2.78 8.56a.8.8 0 00.76.56h9a.8.8 0 01.47 1.45l-7.32 5.32a.81.81 0 00-.29.9l2.79 8.57a.8.8 0 01-1.24.89L673 359a.78.78 0 00-.94 0l-7.29 5.29a.8.8 0 01-1.23-.89l2.78-8.57a.81.81 0 00-.29-.9l-7.29-5.29a.8.8 0 01.48-1.45h9a.82.82 0 00.77-.56l2.78-8.56a.8.8 0 011.54-.07zm48.57 0l2.78 8.56a.82.82 0 00.77.56h9a.8.8 0 01.47 1.45l-7.28 5.29a.81.81 0 00-.29.9l2.78 8.57a.8.8 0 01-1.23.89l-7.29-5.22a.78.78 0 00-.94 0l-7.29 5.29a.8.8 0 01-1.24-.89l2.79-8.57a.82.82 0 00-.29-.9l-7.29-5.29a.8.8 0 01.47-1.45h9a.8.8 0 00.76-.56l2.78-8.56a.8.8 0 011.54-.07z"/></g><use xlink:href="#p" x="145.72" fill="#c3c3c3"/><rect x="887.89" y="185.12" width="491.67" height="333.44" rx="13.68" class="G"/><path d="M1100.83 342.4l-1.84-.58.28-1.25c1.4-6.77.48-12.23-2.63-14s-7.87.08-12.8 4.37c-.48.41-.95.85-1.43 1.31-.32-.31-.63-.6-1-.88-5.17-4.59-10.35-6.52-13.46-4.72s-3.87 6.85-2.61 13.27c.12.62.26 1.25.42 1.9a48.39 48.39 0 00-2.12.66c-6.06 2.12-9.93 5.43-9.93 8.86s4.16 7.11 10.47 9.27a25.89 25.89 0 001.55.48c-.18.7-.33 1.38-.45 2.05-1.2 6.3-.27 11.31 2.71 13s8.23-.05 13.26-4.44c.39-.35.79-.72 1.19-1.1.52.49 1 1 1.55 1.41 4.86 4.18 9.67 5.87 12.64 4.15s4.07-7.15 2.77-13.7c-.09-.5-.21-1-.34-1.53.36-.1.72-.22 1.07-.33 6.56-2.18 10.83-5.69 10.83-9.29.04-3.44-3.96-6.78-10.13-8.91zm-15.39-9.64c4.23-3.68 8.18-5.14 10-4.1s2.66 5.57 1.46 11.41c-.08.38-.17.76-.26 1.14A59.62 59.62 0 001089 340a58.57 58.57 0 00-4.83-6c.4-.46.83-.86 1.27-1.24zM1072 351.37q1.11-2.31 2.44-4.61c.88-1.53 1.81-3 2.77-4.42a68.56 68.56 0 015.21-.2 68.89 68.89 0 015.23.2 77.346 77.346 0 015.22 9c-.74 1.53-1.56 3.08-2.46 4.63s-1.81 3-2.74 4.43c-1.7.13-3.46.19-5.25.19s-3.51-.06-5.18-.17c-1-1.41-1.91-2.9-2.8-4.43a46.8 46.8 0 01-2.44-4.62zm-1.3 2.88a88.45 88.45 0 001.63 3c.58 1 1.18 2 1.79 2.94a51 51 0 01-5.27-.85c.46-1.67 1.09-3.34 1.81-5.09zm0-5.75a51.41 51.41 0 01-1.82-5c1.64-.36 3.38-.66 5.19-.89-.6.94-1.19 1.9-1.75 2.89-.61 1.02-1.15 2.01-1.66 3zm21.83 8.69c.59-1 1.14-2 1.66-3a49.29 49.29 0 011.92 5 52.44 52.44 0 01-5.34.91l1.72-2.91zm1.64-8.69a74.33 74.33 0 00-1.65-3 83.15 83.15 0 00-1.74-2.86 51.88 51.88 0 015.22.91c-.53 1.6-1.15 3.25-1.87 4.95zm-11.72-12.79a51.36 51.36 0 013.37 4.07c-1.12 0-2.25-.08-3.4-.08s-2.25 0-3.37.08c1.08-1.47 2.22-2.78 3.36-4.07zm-13.19-7c1.92-1.11 6.15.47 10.62 4.43l.86.79a57.78 57.78 0 00-4.88 6 59.37 59.37 0 00-7.64 1.19q-.23-.9-.39-1.77c-1.12-5.43-.4-9.57 1.39-10.61zm-2.79 30c-.48-.14-1-.29-1.41-.45a20.72 20.72 0 01-6.68-3.54c-1.42-1.22-2.13-2.43-2.13-3.41 0-2.08 3.1-4.74 8.29-6.55.63-.22 1.28-.42 2-.62a56.52 56.52 0 002.79 7.23 60.42 60.42 0 00-2.9 7.34zm13.26 11.14a20.74 20.74 0 01-6.41 4c-1.76.62-3.17.64-4 .15-1.8-1-2.55-5.06-1.53-10.46.12-.62.26-1.25.42-1.9a58 58 0 007.71 1.12 60 60 0 004.92 6.07c-.43.37-.79.71-1.15 1.02zm2.79-2.76A52 52 0 011079 363c1.09 0 2.21.06 3.34.06s2.32 0 3.46-.07a51.21 51.21 0 01-3.32 4.1zm14.85 3.4c-.34 1.84-1 3.07-1.87 3.56-1.81 1-5.67-.32-9.83-3.9-.47-.41-1-.85-1.44-1.31a55.49 55.49 0 004.8-6.09 57.73 57.73 0 007.76-1.2l.31 1.39a20.72 20.72 0 01.23 7.55zm2.08-12.21l-1 .3a57.76 57.76 0 00-2.89-7.25 56.89 56.89 0 002.78-7.15 31.01 31.01 0 011.7.54c5.3 1.82 8.53 4.52 8.53 6.59s-3.5 5.09-9.16 6.97zm-17.07-1.85a5.12 5.12 0 10-5.11-5.12 5.12 5.12 0 005.11 5.12z" fill="#53c1de"/><path d="M1058 248.37a10.86 10.86 0 013.68-4.3 10.68 10.68 0 015.47-1.84 3 3 0 01.61 0 10.8 10.8 0 00-10.8 10.81v12.3l.08.09V253a10 10 0 01.96-4.63z" fill="url(#A)"/><use xlink:href="#q" fill="url(#D)"/><use xlink:href="#q" fill="url(#E)"/><path d="M1182.41 294.61a4.46 4.46 0 01-2.12-.55l-6.72-4c-1-.55-.51-.75-.2-.86a12.13 12.13 0 003-1.36.46.46 0 01.5.05l5.16 3.08a.6.6 0 00.61 0l20.16-11.67a.58.58 0 00.31-.56v-23.3a.59.59 0 00-.31-.56l-20.16-11.62a.65.65 0 00-.61 0l-20.17 11.62a.66.66 0 00-.3.56v23.3a.64.64 0 00.3.56l5.51 3.18c3 1.52 4.85-.25 4.85-2v-23a.62.62 0 01.61-.6h2.58a.61.61 0 01.6.6v23c0 4-2.17 6.32-6 6.32-1.16 0-2.07 0-4.65-1.26l-5.31-3a4.27 4.27 0 01-2.12-3.69v-23.3a4.27 4.27 0 012.12-3.69l20.17-11.67a4.51 4.51 0 014.25 0l20.16 11.67a4.26 4.26 0 012.13 3.69v23.3a4.26 4.26 0 01-2.13 3.69l-20.16 11.68a5.26 5.26 0 01-2.13.45zm6.22-16c-8.85 0-10.67-4-10.67-7.48a.63.63 0 01.61-.61h2.63a.53.53 0 01.56.51c.4 2.68 1.56 4 6.92 4 4.25 0 6.07-1 6.07-3.23 0-1.32-.51-2.28-7.13-2.93-5.51-.56-8.95-1.77-8.95-6.17 0-4.1 3.44-6.52 9.2-6.52 6.47 0 9.66 2.22 10.06 7.07a.81.81 0 01-.15.46.62.62 0 01-.41.2h-2.62a.59.59 0 01-.56-.45c-.61-2.78-2.17-3.69-6.32-3.69-4.65 0-5.2 1.61-5.2 2.83 0 1.46.65 1.92 6.92 2.73s9.15 2 9.15 6.32-3.69 7-10.11 7z" fill="#539e43"/><path d="M1183.71 323.64a34.08 34.08 0 00-5.76.49c-5.09.9-6 2.78-6 6.26V335h12v1.53h-16.56a7.51 7.51 0 00-7.52 6.11 22.42 22.42 0 000 12.24c.85 3.56 2.9 6.1 6.4 6.1h4.14v-5.5A7.65 7.65 0 011178 348h12a6.07 6.07 0 006-6.12v-11.49c0-3.26-2.75-5.72-6-6.26a36.88 36.88 0 00-6.27-.49zm-6.52 3.69a2.3 2.3 0 11-2.26 2.3 2.28 2.28 0 012.26-2.3z" fill="url(#F)"/><path d="M1197.51 336.51v5.35a7.73 7.73 0 01-7.53 7.63h-12a6.15 6.15 0 00-6 6.12v11.47c0 3.27 2.84 5.19 6 6.12a20.11 20.11 0 0012 0c3-.88 6-2.64 6-6.12v-4.59h-12V361H1202c3.5 0 4.8-2.44 6-6.1s1.2-7.41 0-12.24c-.87-3.49-2.52-6.11-6-6.11zm-6.77 29a2.3 2.3 0 11-2.26 2.29 2.27 2.27 0 012.26-2.25z" fill="url(#G)"/><path d="M1084 411.71l-25.43 9 4 33.33 21.43 11.73 21.55-11.94 4-33.33z" fill="#b3b3b3"/><path d="M1107 422.43l-23.12-7.88V463l19.38-10.73 3.74-29.8z" fill="#a6120d"/><path d="M1061.39 422.57l3.44 29.81 19.08 10.62v-48.45l-22.52 8z" fill="#dd1b16"/><path d="M1090.28 440.32l-6.37 3h-6.71l-3.15 7.89-5.86.11 15.72-35 6.37 24zm-.62-1.5l-5.71-11.3-4.68 11.1h4.64l5.75.2z" fill="#f2f2f2"/><path d="M1083.91 416.3v11.22l5.31 11.11h-5.34v4.66h7.39l3.45 8 5.61.1-16.45-35.09z" fill="#b3b3b3"/><path d="M991.5 361.51a2 2 0 112-2 2 2 0 01-2 2m-22.6 0a2 2 0 112-2 2.05 2.05 0 01-2 2m23.33-12.32l4.09-7.07A.86.86 0 00996 341a.85.85 0 00-1.16.32l-4.14 7.16a25.78 25.78 0 00-21 0l-4.14-7.16a.85.85 0 10-1.47.85l4.08 7.07a24.15 24.15 0 00-12.51 19.32h49.1a24.14 24.14 0 00-12.52-19.32" fill="#3ddb85"/><path d="M973.35 278.94s-2 1.18 1.45 1.58a30.26 30.26 0 0011-.47 19.92 19.92 0 002.92 1.43c-10.39 4.45-23.5-.26-15.35-2.54m-1.27-5.81s-2.27 1.68 1.2 2a42.76 42.76 0 0014.18-.68 6.31 6.31 0 002.18 1.33c-12.56 3.67-26.54.29-17.56-2.69" class="I"/><path d="M982.78 263.28c2.56 2.94-.67 5.6-.67 5.6s6.5-3.36 3.51-7.56c-2.78-3.92-4.92-5.86 6.65-12.57 0 0-18.16 4.53-9.49 14.53" fill="#e76f00"/><path d="M996.52 283.23s1.5 1.24-1.66 2.2c-6 1.81-24.94 2.36-30.21.07-1.89-.82 1.66-2 2.77-2.21a7.15 7.15 0 011.83-.2c-2.1-1.49-13.6 2.91-5.84 4.17 21.18 3.43 38.6-1.55 33.11-4m-22.19-16.12s-9.64 2.29-3.42 3.12a71.52 71.52 0 0012.76-.13c4-.34 8-1.05 8-1.05a17.27 17.27 0 00-2.42 1.29c-9.79 2.58-28.71 1.38-23.26-1.25a18.24 18.24 0 018.35-2m17.29 9.67c10-5.17 5.35-10.14 2.14-9.47a7.89 7.89 0 00-1.14.3 1.89 1.89 0 01.85-.65c6.36-2.24 11.25 6.59-2.05 10.08a.81.81 0 00.2-.26" class="I"/><path d="M985.62 237.91s5.52 5.52-5.22 14c-8.62 6.8-2 10.67 0 15.11-5-4.54-8.71-8.53-6.24-12.25 3.63-5.45 13.7-8.1 11.47-16.86" fill="#e76f00"/><path d="M975.31 290.79c9.55.62 24.22-.33 24.57-4.86 0 0-.67 1.72-7.9 3.08a78.75 78.75 0 01-24.17.37s1.22 1 7.5 1.41" class="I"/><path d="M996.9 449.23l-27.14 16.12 35.14-2.35 2.71-35.43-10.71 21.7z" fill="url(#H)"/><path d="M1005 462.94l-3-20.85-8.29 10.91 11.25 10z" fill="url(#I)"/><path d="M1005 462.94l-22.13-1.74-13 4.1 35.12-2.36z" fill="url(#J)"/><path d="M969.91 465.31l5.53-18.11-12.16 2.6 6.63 15.51z" fill="url(#K)"/><path d="M993.71 453l-5.09-19.92-14.55 13.64 19.64 6.28z" fill="url(#L)"/><path d="M1006.45 433.38l-13.76-11.24-3.83 12.39 17.59-1.15z" fill="url(#M)"/><path d="M1000 418.13l-8.09 4.48-5.11-4.54 13.2.06z" fill="url(#N)"/><path d="M960.08 455.87l3.39-6.18-2.75-7.36z" fill="url(#O)"/><path d="M960.54 442.09l2.76 7.83 12-2.69 13.7-12.72 3.87-12.27-6.12-4.24-10.33 3.87-9.81 9.14c-.23.14-4.18 7.57-6.07 11.13z" fill="#fff"/><path d="M970.23 428c7.06-7 16.16-11.14 19.65-7.62s-.21 12.09-7.27 19.09-16.05 11.36-19.54 7.84.1-12.32 7.16-19.31z" fill="url(#P)"/><path d="M969.91 465.3l5.49-18.17 18.21 5.87c-6.59 6.17-13.91 11.39-23.7 12.31z" fill="url(#Q)"/><path d="M989 434.48l4.67 18.52c5.5-5.79 10.44-12 12.86-19.7L989 434.48z" fill="url(#R)"/><path d="M1006.48 433.4c1.87-5.65 2.3-13.75-6.52-15.26l-7.24 4z" fill="url(#S)"/><path d="M960.08 455.79c.26 9.32 7 9.46 9.84 9.54l-6.61-15.45z" fill="#9e1209"/><path d="M989 434.5l12.92 7.92c.27.15 3.68-5.74 4.45-9.07z" fill="url(#T)"/><path d="M975.39 447.13l7.33 14.15a47.74 47.74 0 0010.84-8.28l-18.17-5.87z" fill="url(#U)"/><path d="M963.28 449.9l-1 12.37c2 2.68 4.66 2.91 7.49 2.7-2.09-5.09-6.18-15.28-6.49-15.07z" fill="url(#V)"/><path d="M992.68 422.17l14.56 2.05c-.78-3.3-3.16-5.42-7.23-6.09l-7.33 4z" fill="url(#W)"/><path d="M1310.73 346L1286 321.23a3.65 3.65 0 00-5.17 0l-5.13 5.14 6.51 6.52a4.33 4.33 0 015.49 5.52l6.29 6.28a4.34 4.34 0 11-2.61 2.45l-5.85-5.86v15.42a4.3 4.3 0 011.15.82 4.35 4.35 0 11-6.14 0 4.54 4.54 0 011.42-.95V341a4.32 4.32 0 01-2.35-5.69l-6.43-6.43-17 17a3.66 3.66 0 000 5.16l24.75 24.75a3.66 3.66 0 005.16 0l24.63-24.63a3.65 3.65 0 000-5.17" fill="#de4c36"/><path d="M1304.76 282.45a16 16 0 00-6.67 1c-.52.21-1.35.21-1.42.86.28.28.31.72.56 1.1a8 8 0 001.78 2.1l2.2 1.58c1.35.83 2.86 1.31 4.17 2.14l2.27 1.61c.38.28.62.72 1.1.9v-.11c-.24-.31-.31-.75-.55-1.1s-.69-.65-1-1a16.36 16.36 0 00-3.58-3.47c-1.1-.76-3.51-1.79-4-3.06l-.07-.07a13.92 13.92 0 002.38-.55c1.17-.31 2.23-.24 3.44-.55l1.65-.48V283c-.62-.62-1.07-1.44-1.72-2a46.52 46.52 0 00-5.68-4.23c-1.06-.69-2.44-1.14-3.57-1.72-.42-.21-1.11-.31-1.35-.65a14.26 14.26 0 01-1.41-2.65l-2.82-6a36.46 36.46 0 00-1.75-3.92 34.7 34.7 0 00-13.3-12.83 16.7 16.7 0 00-4.4-1.41l-2.58-.14a14.39 14.39 0 01-1.59-1.2c-2-1.24-7-3.92-8.46-.38-.93 2.23 1.38 4.44 2.17 5.57a15.83 15.83 0 011.75 2.58c.24.58.31 1.2.55 1.82a41.15 41.15 0 001.79 4.61 15.82 15.82 0 001.28 2.13c.27.38.75.55.86 1.17a9.73 9.73 0 00-.8 2.58c-1.23 3.89-.75 8.71 1 11.56.55.86 1.86 2.75 3.61 2 1.55-.62 1.21-2.58 1.65-4.3.11-.41 0-.69.25-1v.07c.48 1 1 1.89 1.41 2.85a19.39 19.39 0 004.47 4.61c.82.62 1.48 1.68 2.51 2.06v-.1h-.07a4 4 0 00-.79-.69 16.4 16.4 0 01-1.79-2.06 43.56 43.56 0 01-3.85-6.26c-.55-1.07-1-2.24-1.48-3.3-.21-.42-.21-1-.55-1.24a12.43 12.43 0 00-1.65 2.34 19.09 19.09 0 00-1 5.19c-.13 0-.07 0-.13.07-1.1-.28-1.48-1.41-1.9-2.37a15 15 0 01-.31-9.19c.25-.72 1.28-3 .86-3.68-.2-.65-.89-1-1.27-1.54a13.72 13.72 0 01-1.24-2.21c-.82-1.92-1.23-4.05-2.13-6a17.63 17.63 0 00-1.72-2.65 17.59 17.59 0 01-1.89-2.68c-.17-.38-.41-1-.14-1.41a.55.55 0 01.48-.45c.45-.38 1.72.1 2.17.31a18.14 18.14 0 013.41 1.72c.48.34 1 1 1.61 1.17h.72c1.11.24 2.34.07 3.38.38a21.78 21.78 0 014.95 2.37 30.57 30.57 0 0110.73 11.76c.41.79.58 1.52 1 2.34.72 1.69 1.62 3.41 2.34 5.06a22.46 22.46 0 002.44 4.61c.52.72 2.58 1.1 3.51 1.48a23 23 0 012.37 1c1.17.72 2.34 1.55 3.44 2.34.55.41 2.27 1.27 2.38 2zm-35.09-29.89a5.67 5.67 0 00-1.41.17v.07h.07a11.81 11.81 0 001.1 1.41l.79 1.65a.4.4 0 00.07-.07 1.91 1.91 0 00.73-1.72c-.21-.24-.24-.48-.42-.72s-.65-.52-.93-.79z" fill="#00546b"/><path d="M1190.53 415.91l-6.62 11.47-6.62-11.47h-22l28.66 49.64 28.66-49.64z" fill="#4dba87"/><path d="M1190.53 415.91l-6.62 11.47-6.62-11.47h-10.58l17.2 29.79 17.2-29.79z" fill="#435466"/><g fill="#00546b"><circle cx="1267.13" cy="435.85" r="3.91"/><circle cx="1280.66" cy="435.85" r="3.91"/><circle cx="1294.19" cy="435.85" r="3.91"/></g><path d="M601.21 601.61v11.95m0 39.65v9.78m0 32.3v12.12m-6.32-69.96h-36.35m109.56 36.81v-25l-11.78-11.78H625.9m-87.38 6.32v27l11.79 11.79H574" class="B C D E F"/><rect x="563.97" y="580.97" width="74.47" height="23.19" rx="11.59" fill="url(#X)"/><path d="M584.817 637.438l16.398-16.398 16.398 16.398-16.398 16.398z" class="B D F G"/><path transform="rotate(-90 538.525 637.445)" d="M526.93 625.85h23.19v23.19h-23.19z" fill="url(#Y)"/><rect x="589.62" y="687.33" width="23.19" height="79.78" rx="11.59" transform="rotate(-90 601.21 727.22)" fill="url(#Z)"/><g class="B D F"><circle cx="668.1" cy="682.33" r="11.59" class="G"/><path d="M602.06 682.33h45.88" class="C E"/><path d="M582.29 693.92v-23.19h37.84v23.19z" class="G"/><path d="M596.63 662.99h9.06m20.21-21.54v-9.06m22.04 54.47v-9.05m-73.92 9.33v-9.06m-15.48-36.11v-9.05m38.09-18.14h9.06m-9.06 93.48h9.06" class="C E"/></g><path d="M559.37 300.11h204.61v19.98H559.37z" fill="url(#a)"/><path d="M559.37 277.57h179.19v19.98H559.37z" fill="url(#b)"/><path d="M559.37 255.02h162.58V275H559.37z" fill="url(#c)"/><path d="M559.39 232.47h227.98v19.98H559.39z" fill="url(#d)"/><circle cx="935.13" cy="626.75" r="244.96" fill="#1e1e1e"/><circle cx="935.13" cy="626.75" r="227.78" class="G"/><circle cx="935.13" cy="626.75" r="214.8" fill="url(#e)"/><path d="M741.61 606.47A194.75 194.75 0 01877.18 441m30.25-7.81h0" stroke="#f5f5f5" stroke-width="30" class="C E K"/><g clip-path="url(#f)"><path d="M821.44 611.1l3.9-64.86c1.37-26.53 17.42-65.93 58.62-68.8 0 0 23.79-31.14 71.45-21.57s98.74 106.61 87.52 136.69c0 0 22.65 35.52 32.77 53.29s-5.47 41.31-5.47 41.31 26 35.83 15 50.32-142.94 68.93-142.94 68.93S845.41 826.45 823 778s-35.68-87.42-23.1-115 21.54-51.9 21.54-51.9z"/><path d="M1087 778.64a215.29 215.29 0 0020.65-23.9 10.49 10.49 0 00.24-12.18c-8.5-12.46-19-18.58-34.56-23.4-20.24-6.29-76.22-18.33-76.22-18.33l-122.34 18.33S821.47 739 800 751.48a131.66 131.66 0 00-16 11.67 10.44 10.44 0 00-.82 15.41l.08.08c83.87 83.89 219.87 83.89 303.74 0z" fill="url(#g)"/><path d="M869.9 600.1s-6.18-15-16-11.61 2.59 32 13.41 37.91 11.08-2.06 11.08-2.06z" class="H"/><path d="M895.28 633.82s5.47 55.52 4.93 76.86-4.93 25.71 3 33.64 27.9 27.08 45.67 13.13 30.64-44.31 32.55-48.69-13.13-28.6-15.59-47.81-1.36-59.68-1.36-59.68z" class="J"/><path d="M953.93 633l-58.52 2.06 3.73 45.64c51.86 5.73 54.79-47.7 54.79-47.7z" class="H"/><path d="M861.14 578.18s8.25 28.36 14.7 48.48S904.72 661 922 661c16.51 0 38.94-7.73 46.42-53.89s7.22-77.36 7.22-77.36L874 492.56l-16.25 70.92z" class="J"/><path d="M889.76 534.34s20.33 40.63 82.73 50.14l2.64-13.73zm0 0s-13.4 44.58-23.26 56.66l-5.5-23.86z"/><path d="M967.93 597.27s4.17-15.64 14.32-13.6 1.64 32-8.3 39.34-11.26-.59-11.26-.59z" class="J"/><path d="M900.21 710.68s9 28.17 30.08 30.91 48.41-42.16 43.94-53.69c0 0 10.49-.5 18.13 3.72s14.73 5.9 12.81 13.83-29.74 74.16-64.75 77.17-69.67-45-72.4-54 2.1-15.25 11.67-19.9 20.24-11 20.24-11a88.58 88.58 0 01.28 12.96z" fill="#df1250"/><path d="M911.19 600.88a1.25 1.25 0 01-.63-1.84 6 6 0 015.33-3.19 11.86 11.86 0 016 1.57 1.26 1.26 0 01-.09 2.26 23.88 23.88 0 01-5.89 1.88 10.93 10.93 0 01-4.72-.68z" class="H"/><path d="M904.39 614.09c6.38 2.39 16.32 3.75 27.8-3" stroke-width="4" class="C D E K"/><path d="M889.76 534.34s-8 27.85-25.38 46.16l6.12 29.06-1.1-.48a8.3 8.3 0 01-4.43-4.64l-7.19-18.75-17.34-33.33 19.71-62.1 70.61-14.55 75.65 42.49 5 59.32-34.33 5.17-4.68 19.7a6.28 6.28 0 01-2.63 3.77l-1.36.9 4.33-29.93s-54.99-3-82.98-42.79z"/></g><rect x="1070.04" y="792.46" width="93.6" height="27.07" rx="8.66" transform="rotate(-45 1116.833 805.992)" fill="#8c8c8c"/><path d="M1105.63 836.353l41.571-41.571 95.877 95.877a29.39 29.39 0 010 41.564 29.39 29.39 0 01-41.571.007l-95.877-95.877z" fill="#c3c3c3"/><path d="M1147.2 794.78l4.07 4.08-20.89 35.14-2.23 4.84a21.64 21.64 0 004.35 24.36l-26.87-26.88z" fill="#1e1e1e"/><g class="C B"><g class="E F"><path d="M558.54 466.4l56.93-18.59 26.41 3.74 24.63-3.74h9.14l3.05-2.02 4.82-4.07 8.12-1.46 10.16-1.01 11.43-19.54 14.47-6.46 15.75 2.91 19.71-6.37 8.98-6.76 14.4-6.03" stroke="#bf3af0"/><path d="M558.54 471.64l24.91-2.52 23.1-9.05 29.14-20.41 25.16 2.82 11.7-3.52L697.53 428h41.94l46.36-22.44" class="D"/><path d="M558.54 460.33l38.97-25.37 23.95 3.64 45.92-38.08 119.16-10.5" stroke="#ff8438"/></g><g stroke-width="2" class="D"><circle cx="667.38" cy="400.52" r="4.64"/><circle cx="727.7" cy="413.26" r="4.69"/><circle cx="739.47" cy="428" r="5.09"/><path d="M558.54 449.1v-59.08" stroke-dasharray="2,10" class="E"/></g></g><circle cx="1256.09" cy="681.1" r="12.88" fill="url(#h)"/><path d="M1258 695.43a27.59 27.59 0 0125.53 17.13h-51.06a27.58 27.58 0 0125.53-17.13z" fill="url(#i)"/><circle cx="1256.03" cy="621.44" r="13.9" fill="url(#j)"/><path d="M1250.34 636.91a29.78 29.78 0 00-27.55 18.48h55.1a29.79 29.79 0 00-27.55-18.48z" fill="url(#k)"/><path d="M1209.38 603.85v25a2.43 2.43 0 01-1.2 2.09l-10.93 6.4a1.46 1.46 0 00.73 2.72h9a2.42 2.42 0 012.42 2.42v7.24a5.61 5.61 0 005.62 5.62h74.69a5.62 5.62 0 005.62-5.62v-45.87a5.62 5.62 0 00-5.62-5.62H1215a5.62 5.62 0 00-5.62 5.62z" class="B C D F"/><circle cx="1330.8" cy="621.44" r="13.9" fill="url(#l)"/><path d="M1340.28 636.91a29.79 29.79 0 0127.56 18.48h-55.11a29.79 29.79 0 0127.55-18.48z" fill="url(#m)"/><path d="M1381.24 603.85v25a2.43 2.43 0 001.2 2.09l10.94 6.4a1.46 1.46 0 01-.74 2.72h-9a2.42 2.42 0 00-2.42 2.42v7.24a5.61 5.61 0 01-5.62 5.62h-74.69a5.62 5.62 0 01-5.62-5.62v-45.87a5.62 5.62 0 015.62-5.62h74.69a5.62 5.62 0 015.64 5.62zM1209.38 661v43.51a8 8 0 008 8 2.42 2.42 0 012.42 2.41v9a1.46 1.46 0 002.72.74l6.4-10.94a2.43 2.43 0 012.09-1.19h58.64a5.62 5.62 0 005.62-5.62V661a5.62 5.62 0 00-5.62-5.62H1215a5.62 5.62 0 00-5.62 5.62z" class="B C D F"/><g fill="url(#n)"><circle cx="1334.89" cy="681.1" r="12.88"/><path d="M1334.89 695.43a27.59 27.59 0 00-25.53 17.13h51.06a27.59 27.59 0 00-25.53-17.13z"/></g><path d="M1295.31 661v45.93a5.62 5.62 0 005.62 5.62h58.64a2.41 2.41 0 012.09 1.19l6.41 10.94a1.46 1.46 0 002.72-.74v-9a2.41 2.41 0 012.42-2.41h2.41a5.62 5.62 0 005.62-5.62V661a5.62 5.62 0 00-5.62-5.62h-74.69a5.62 5.62 0 00-5.62 5.62z" class="B C D F"/><path d="M1105.65 251.34a10.8 10.8 0 00-7-8.5 11.38 11.38 0 00-3.83-.65h-17.47l7.13 7.24.08.06v-.06c16.1 10.95 10.89 23 10.89 23s4.58 5.16 2.73 9.68a7.06 7.06 0 00-.57-.78 7.13 7.13 0 00-.76-.79 6.94 6.94 0 00-.75-.59 5.45 5.45 0 00-2.3-.93h-.52a3.68 3.68 0 00-.74 0h-.26a6.57 6.57 0 00-.76.21h-.1c-.21.07-.42.17-.64.26l-.5.24-.55.28-.18.1-.82.41a14.11 14.11 0 01-3.62 1.26h-.11a15.75 15.75 0 01-2.83.25h-1.51l-.87-.07h-.39a23.62 23.62 0 01-3-.56h-.16l-.58-.15a24 24 0 01-3-1.17l-.39-.18-.56-.28-.65-.36-.25-.13c-.65-.38-1.26-.77-1.83-1.18l-.18-.13c-.56-.4-1.08-.81-1.57-1.22l-.16-.13-.23-.21c-.36-.31-.69-.63-1-.93l-.34-.35a21.93 21.93 0 01-.83-.88l-.3-.32-.17-.22c-.54-.62-1-1.18-1.29-1.64l-.18-.23a9.67 9.67 0 01-.57-.9l-5-5.35v14.77a10.83 10.83 0 001.08 4.75 11 11 0 003.72 4.27 10.84 10.84 0 005.5 1.81h27.5a11.53 11.53 0 003.41-.49 10.86 10.86 0 007.35-8.17 12.39 12.39 0 00.21-2.51v-26.41a12.59 12.59 0 00-.28-2.12z" fill="url(#o)"/></svg>