<svg xmlns="http://www.w3.org/2000/svg" xmlns:xlink="http://www.w3.org/1999/xlink" viewBox="0 0 1920 1080"><style>.B{stroke-miterlimit:10}.C{fill:none}.D{stroke:#000}.E{fill:#1e1e1e}.F{fill:#ff8338}.G{fill:#fff}.H{stroke-linecap:round}.I{fill:#d4d4d4}.J{fill:#e9e9e9}.K{fill:#989898}.L{stroke-width:.8}.M{stroke-linejoin:round}</style><defs><linearGradient id="A" x1="783.21" y1="392.69" x2="1174.99" y2="392.69" gradientUnits="userSpaceOnUse"><stop offset="0" stop-color="#ff1d4b"/><stop offset="1" stop-color="#b83dfd"/></linearGradient><linearGradient id="B" x1="829.69" y1="461.25" x2="829.69" y2="517.36" xlink:href="#A"/><linearGradient id="C" x1="1044.26" y1="384.81" x2="1044.26" y2="541.72" xlink:href="#A"/><linearGradient id="D" x1="782.21" y1="267.75" x2="1175.99" y2="267.75" xlink:href="#A"/><linearGradient id="F" x1="1072.55" y1="654.48" x2="1103.24" y2="654.48" gradientUnits="userSpaceOnUse"><stop offset="0" stop-color="#1c48bf"/><stop offset="1" stop-color="#b93dfd"/></linearGradient><linearGradient id="G" x1="1081.83" y1="663.43" x2="1118.29" y2="663.43" xlink:href="#A"/><linearGradient id="H" x1="1043.22" y1="672.869" x2="1074.47" y2="674.432" xlink:href="#A"/><clipPath id="E"><path d="M1090.71 728.32c0 2.2-6.87 4-15.34 4s-15.35-1.78-15.35-4v-23h30.69z" class="C"/></clipPath><path id="I" d="M1039 766.81h13.95v189.6a7 7 0 01-7 7 7 7 0 01-7-7v-189.6h.05z"/></defs><ellipse cx="943.99" cy="891.46" rx="77.99" ry="16.53" fill="#e4e4e4"/><ellipse cx="979.1" cy="392.69" rx="195.89" ry="27.57" fill="url(#A)"/><g fill="#c1106d"><path d="M783.21 392.69c0 11.07 46.38 20.62 113.27 25 0 0 4.56-21.25 18.47-51.07-76.68 3.75-131.74 14-131.74 26.07z"/><path d="M915 366.48c29.16-62.46 99.3-162.5 254.47-184.8l-79-18.18-308.26 7v222.19c0-12.15 55.53-22.47 132.79-26.21z"/></g><path d="M979.1 84.28c-123.42 0-223.48 14.08-223.48 31.46v49.46h447v-49.46c-.04-17.38-100.1-31.46-223.52-31.46z" class="I"/><g fill="#e4e4e4"><path d="M1173.2 914.29l-95.07 18.87 12.82-7.75 74.98-13.26 7.27 2.14zm-125.25 48.6l-74.5 9.58 10.59-6.4 58.54-7.67 5.37 4.49zm-210.31-48.6l-95.07 18.87 12.83-7.75 74.97-13.26 7.27 2.14z"/><path d="M1095.06 923.94H745a2.58 2.58 0 00-.87.16l-117.81 44.63a2.45 2.45 0 00.87 4.74h350a2.52 2.52 0 00.86-.16l117.85-44.63a2.45 2.45 0 00-.84-4.74z"/></g><ellipse cx="979.1" cy="165.2" rx="223.48" ry="31.46" class="E"/><path d="M1072.35 324.8l13.38-5.28-4.53-15.47-5.69-7.59-3.78 12.77.62 15.57z" class="F"/><path d="M1076.89 293.93l-1.2-8.52-1.69-7.71a2.21 2.21 0 011.78-2.64 1.72 1.72 0 011.91 1.12l3.78 10.7 1.55 12.09zm-6.37 16.73l-7.68-14.1a2 2 0 01.81-2.77 2.05 2.05 0 012.59.53l6.67 8.46" fill="#dd6726"/><g class="F"><path d="M986.75 296.83l-2.17-8.83a1.11 1.11 0 01.86-1.35 3.21 3.21 0 013.65 2.05l5 13.59 7.84 13.52-5.53 4.44-8.5-18.51z"/><path d="M998.67 316.91a22.24 22.24 0 00-5.79-10.91l-2-2-3.39-9.62a3.36 3.36 0 00-2.85-2.23 1.11 1.11 0 00-1.2 1.28l1.59 9.93a18.41 18.41 0 001.77 5.4c1.5 3 3.76 8 3.52 11.13l-1 15.76 14.36.46v-9.8l2.93-7.18 4.72-15.83a1.92 1.92 0 00-1.11-2.34 2 2 0 00-2.32.67l-3.94 5.58-4.16-21.12a1.92 1.92 0 00-1.88-1.54 1.91 1.91 0 00-1.9 2.11l1.45 14.13-2.38-16.53a2 2 0 00-2.15-1.73h-.47a1.48 1.48 0 00-1.36 1.58l1.08 13.22 1.23 4"/></g><g class="B D H"><path d="M998.67 316.91a22.24 22.24 0 00-5.79-10.91l-2-2-3.39-9.62a3.4 3.4 0 00-1.87-2" class="C"/><path d="M991.83 302.45s4.33-1.56 6.84-1.5m-6.4-3.58l1.39 4.49m8.25 8.13l2.13-2.77" class="G"/></g><g class="F"><path d="M1069.36 284.26l-2.7-4.32a2.76 2.76 0 01.62-3.64 1.17 1.17 0 011.62.14l8.43 9.59s6.33 10.73 6.77 13 .06 10.09.47 13.53 2.76 10.47 2.76 10.47"/><path d="M1078.87 294.4l-2.5-4.65a18 18 0 00-4-5l-6.31-5.48a1.23 1.23 0 00-1.71.07l-.2.2a2.3 2.3 0 00-.17 3l3 3.9"/></g><path d="M1078.87 294.4l-2.5-4.65a18 18 0 00-4-5l-6.31-5.48" class="B C D H"/><path d="M1072.61 323.4l-1-5.07s-4.66-4.83-2.65-11.09 2.81-9 2.89-9.91c.06-.65-4.31-7.44-6.19-10.45a3 3 0 01.14-3.39 1 1 0 011.45-.11l5.33 5.39a12.62 12.62 0 012.3 3.22l2 4.07" class="F"/><path d="M1065.34 284.3a1.42 1.42 0 01.43-.81 1.12 1.12 0 011.45-.11l5.33 5.39a12.62 12.62 0 012.3 3.22l2 4.07" class="C D H M"/><path d="M985 348.92l.84-13a11.54 11.54 0 0112-10.78 11.54 11.54 0 0111.08 11.88l-.44 14.54zm87.38-4.61l-3.11-12.62a11.53 11.53 0 018.17-13.89 11.53 11.53 0 0114.14 8l4 14z" fill="#b83dfd"/><path d="M849.3 611c-6.52-6.59-13.49-10.27-15.57-8.22s1.53 9.07 8.06 15.66 13.31 10.17 15.48 8.28l.09-.07c2.05-2.1-1.55-9.08-8.06-15.65z" fill="#565656"/><path d="M849.43 606.96L824.76 627l14.4 13.22 19.76-16.14-.59-7.96-8.9-9.16z" class="J"/><path d="M842.67 612.45s6.92-.69 13.47 13.91l2.78-2.28-7.86-18.08-4.07 2.9z" fill="#3b3b3b"/><path d="M819.71 619h9.14c2.6-.17 6.06-.43 4.58 2.1s-5.24 3.83-5.24 3.83zm-38-3.66l9.72 8.4 1.28 1a25.35 25.35 0 005.17-10.29s-10.77-5.91-16.17.89zm19.01 15.44l27.38 20.75 4.26 3.49c1.25-1.37 6.75-11.13 6.75-11.13a72.63 72.63 0 00-23.4-14.66c-8-3.23-13.12-.03-14.99 1.55z" fill="#ef2975"/><path d="M832 627.44c-4.35-2.74-12.24-8.41-12.24-8.41s-14.45-2.23-21.83-4.6a25.35 25.35 0 01-5.17 10.29l8 6.06c1.87-1.58 7-4.8 15-1.55a72.63 72.63 0 0123.4 14.66s8-5.47 6.41-8.86c-1.09-2.25-9.27-4.85-13.57-7.59z" fill="#dd1250"/><path d="M862.66 468c-2.91-.13-5.64 7.26-6.08 16.52s1.51 16.69 4.37 17h.11c2.92.14 5.64-7.26 6.08-16.52s-1.56-16.82-4.48-17z" fill="#565656"/><path d="M872.04 482.26l-31.57-3.61.61 19.54 25.36 2.84 5.28-6 .32-12.77z" class="J"/><path d="M860.72 481s5.44 5.35.64 19.49l1.58.18 5.87-.12.55-17.42-2.16-1.4z" fill="#3b3b3b"/><path d="M842.63 469.46l6.4 6.54c1.93 1.73 4.54 4 1.7 4.74s-6.41-1.07-6.41-1.07zm-23.93-29.74l.79 12.82.2 1.6a25.3 25.3 0 0011-3.5s-3.35-11.82-11.99-10.92z" fill="#ef2975"/><path d="M821 464.1l4.32 34.09.48 5.48c1.85-.06 12.68-2.95 12.68-2.95a72.58 72.58 0 00-5.89-27c-3.32-7.98-9.21-9.38-11.59-9.62z" fill="url(#B)"/><path d="M845.18 484.09c-1.08-5-2.55-14.63-2.55-14.63s-8.51-11.88-12-18.82a25.3 25.3 0 01-11 3.5l1.26 10c2.43.24 8.32 1.64 11.59 9.63a72.58 72.58 0 015.89 27s9.48 1.87 10.81-1.62c.95-2.36-2.92-10.03-4-15.06z" fill="#dd1250"/><path d="M987.62 541.82l-66.31 6.11a74.44 74.44 0 00-40 16.3l-47.54 38.55c2.08-2 9 1.63 15.57 8.22s10.11 13.55 8.07 15.63l51.1-41.77s9.87 2.73 55.64 7.35 78.1-7.77 78.1-7.77z" class="E"/><path d="M1023.18 533.76l19.03 24.12" class="B D G"/><path d="M999.65 515.38s10-18.52 14.88-52.72l-19.41-24.93A75.92 75.92 0 01979.44 384l3.73-39.59a13.82 13.82 0 0114.42-12.51 13.82 13.82 0 0113.17 14.1l-1.14 47.92a16.41 16.41 0 005.41 12.57l28.34 25.62 7.58.37a12.17 12.17 0 016.43 1.62l3.78 1.09 5.08-6.89 12.15-46.45-9.51-41.21a14.07 14.07 0 019.87-16.69 14.06 14.06 0 0117.1 8.84l7.41 21a107.79 107.79 0 013.32 60.45 268.4 268.4 0 01-20.42 57.09l-1.91 3.9s-4 24.5-6 34.24-7.37 35.91-9.86 42.19-10 7-13.21 7l-9.63-1.48c-12.94-6.53-13.21-4.69-17.83-9.47z" fill="url(#C)"/><path d="M1053.16 432.92c-2.25-4.25-6.1-11.85-7.7-16.94l-3-23-38.46 4.48 31.18 42s-1.48 2.7-2.83 5.67-.83 11.84 10.09 10c8.29-1.44 11.76-10.26 12.69-15.79.48-2.6-.74-4.11-1.97-6.42z" class="F"/><path d="M1039.25 449.39c7.4-3.5 5.32-21.2 5.32-21.2l-10 10.39.66.89s-1.42-4.21-2.87 1.54c-.87 3.45-.57 5.51.28 7 1.17 1.68 3.21 2.99 6.61 1.38z" class="E"/><path d="M1045.46 425.74s-.67 16.44-12.79 17.85-18.86-16.1-18.86-16.1l-9.81-17.78 23.37-21.41 12.26 7.94" class="F"/><path d="M1023.66 401.6s-3.73 13.12-17.38 12.18-13.43-22.14.51-25.48c0 0 6.49-13 24-11.13 18.26 2 17.07 32.75 17.07 32.75l-7.31 7.31-2.81-12.59s-5-.34-7-4.16c.01 0-3.37 2.52-7.08 1.12z" class="E"/><g class="C D"><circle cx="1027.71" cy="417.23" r="6.97"/><ellipse cx="1014.08" cy="423.39" rx="5.97" ry="6.66" transform="rotate(-27.89 1014.182 423.408)"/></g><path d="M1020.91 419.09l-1.77.83m14.72-5.97l8.98-4.34" class="B G D"/><path d="M1031.49 429.18a1.5 1.5 0 00-.09-.32l-.07-.12a.75.75 0 00-.09-.15.61.61 0 00-.13-.15l-.07-.08a1.1 1.1 0 00-.21-.14 1.43 1.43 0 00-1.2-.07h-.08l-7.08 3.36a1.37 1.37 0 00-.45 2.16c1.12 1.24 3 2.76 5.15 2.25l.32-.09a5.51 5.51 0 003.8-3.55 6.92 6.92 0 00.2-3.1z" class="E"/><path d="M1042.77 416.71s-1.89-10.64 4-11.44 5.11 12.12 0 16.16" class="F"/><path d="M1023.18 533.76l-37.31-42.24a36.32 36.32 0 00-23.11-12L862.66 468c2.92.14 4.93 7.77 4.48 17s-3.16 16.66-6.08 16.52h-.11c13 2.74 89.67 9.59 89.67 9.59s15.16 29.56 34.91 52.61c12.62 14.72 27.12 26.79 40.73 26.79 34.9 0 34.9-37 34.9-37-17.11-19.07-37.98-19.75-37.98-19.75zM818.7 439.72c-2.23.37 0 20.59 1 33s4.31 31 6 30.93.49-16.19-1-32.48-4.31-31.74-6-31.45zm-36.99 175.62c-1.29 1.85 14.74 14.38 24.33 22.35s25.17 18.59 26.32 17.33-11.23-11.68-23.94-22-25.73-19.09-26.71-17.68z" class="E"/><ellipse cx="989.03" cy="888.5" rx="70.03" ry="14.58" class="K"/><path d="M898.25 797.24h121.39a69.59 69.59 0 0069.59-69.58v-47.35a37.62 37.62 0 00-37.62-37.62h-80a23.33 23.33 0 00-22.83 18.5l-14 66.27a61.78 61.78 0 01-16.64 30.79l-21.53 21.67A15.67 15.67 0 00892 791a6.27 6.27 0 006.25 6.24z" class="I"/><path d="M897.05 793.19h110.53a64.61 64.61 0 0064.61-64.61v-63.09a22.8 22.8 0 00-22.8-22.8h-77.82a23.33 23.33 0 00-22.83 18.5l-14 66.27a61.78 61.78 0 01-16.64 30.79l-23.53 23.68a8.79 8.79 0 00-2.55 6.2 5.05 5.05 0 005.03 5.06z" class="J"/><path d="M1067.06 753.85H966.17a63.28 63.28 0 00-31.39 8.32l-31 17.64a10.41 10.41 0 00-5.25 9 4.35 4.35 0 004.36 4.35h104.66a64.62 64.62 0 0059.51-39.31z" fill="#ff1250"/><path d="M982.09 797.24v89.25c0 .8 3.11 1.44 6.94 1.44s6.94-.64 6.94-1.44v-89.25z" class="I"/><path d="M995.97 815.07l-13.88 4.58v-22.41h13.88v17.83z"/><path d="M952.62 756.75L962.74 711a53.93 53.93 0 0152.65-42.27 53.93 53.93 0 0153.76 49.65l1.64 20.63a16.29 16.29 0 01-16.22 17.58z" fill="#ff1250"/><path d="M966.17 753.85a63.28 63.28 0 00-31.39 8.32L901 781.39a7.39 7.39 0 00-3.81 6.35c0 4.49 3.29 5.45 5.68 5.45h3.16a4.68 4.68 0 01-.39-9.35l89.38-.49 17.5-.16a107.28 107.28 0 0037.68-8.12l3.75-1.55a64.69 64.69 0 0013.07-19.67z" fill="#ce0946"/><g class="I"><use xlink:href="#I"/><path d="M1164.24 718h13.95v189.6a7 7 0 01-7 7 7 7 0 01-7-7V718h.05zM829 718h14v189.6a7 7 0 01-7 7 7 7 0 01-7-7V718z"/><use xlink:href="#I" x="-335.23"/></g><path d="M1052.94 774.18l-13.94 5.48v-13.54h13.94v8.06zm-335.22 4.46L703.77 785v-14.63h13.95v8.27zm460.46-50.58l-13.94 14.37v-22.67h13.94v8.3z"/><path d="M1181.23 710.17H829.54l-130.77 49.52h351.69l130.77-49.52z" class="I"/><g class="K"><path d="M909.78 745.82l-5.66 2.45a47.62 47.62 0 01-19 3.94H746.55a1 1 0 01-.33-2l11-3.74a47.69 47.69 0 0115.3-2.52H909.4a1 1 0 01.38 1.87z"/><ellipse cx="1007.39" cy="725.08" rx="16.78" ry="3.4"/><ellipse cx="1070.04" cy="729.17" rx="23.34" ry="5.15"/></g><path d="M1050.36 770.37l130.77-49.52v-10.68l-130.77 49.52v10.68z" fill="#b1b1b1"/><path d="M698.67 759.69h351.69v10.68H698.67z" fill="#767676"/><path d="M987.48 717.98l-.1 1.4-32.22 12.2h-82.22l37.92-10.85 76.62-2.75z" class="K"/><path d="M872.94 731.58h82.22v-3.7h-64.82l-17.4 3.7z" fill="#767676"/><path d="M908.85 717.98l-18.51 9.9h64.82l32.32-9.9h-78.63z" fill="#e3e3e3"/><path d="M768.89 624.95h152.82a4.23 4.23 0 014.23 4.23V735.1a4.23 4.23 0 01-4.23 4.23H768.89a7.31 7.31 0 01-7.31-7.31v-99.77a7.31 7.31 0 017.31-7.3z" fill="#eaeaea"/><path d="M766.15 624.95h152.09a4.6 4.6 0 014.6 4.6v105.18a4.6 4.6 0 01-4.6 4.6H766.15a7.67 7.67 0 01-7.67-7.67v-99.05a7.67 7.67 0 017.67-7.66z" fill="#b1b1b1"/><path d="M822.62 718.38v22.15a6 6 0 006 6h25a17.85 17.85 0 006.14-1.09l16.71-6.13h-19.7v-21a3.2 3.2 0 00-3.2-3.2h-27.75a3.2 3.2 0 00-3.2 3.27z" fill="#868686"/><path d="M852.44 715.18h2.2a3.14 3.14 0 013.14 3.13v23.85a2.28 2.28 0 003 2.15l14.12-5h1.51l-16.39 6a19.44 19.44 0 01-6.75 1.2h-1.59z" class="G"/><path d="M822.62 718.38v22.15a6 6 0 006 6h25a17.85 17.85 0 006.14-1.09l1.36-.5a3.22 3.22 0 01-4.33-3v-23.56a3.2 3.2 0 00-3.2-3.2h-27.77a3.2 3.2 0 00-3.2 3.2z" class="J"/><circle cx="839.55" cy="680.06" r="7.91" class="G"/><g fill="#003c84"><path d="M1021.45 705.69a6.9 6.9 0 106.89 6.9 6.9 6.9 0 00-6.89-6.9zm0 9.62a2.72 2.72 0 112.72-2.72 2.72 2.72 0 01-2.72 2.72z"/><ellipse cx="1011.76" cy="701.52" rx="10.36" ry="2.05"/></g><path d="M1011.76 703.56c-5.72 0-10.36-.91-10.36-2v22.66c0 1 3.66 1.84 8.49 2h3.75c4.82-.17 8.48-1 8.48-2v-22.7c0 1.13-4.63 2.04-10.36 2.04z" fill="#004ab4"/><path d="M1020.17 701.86a41.5 41.5 0 00-16.81 0 42 42 0 0016.81 0z"/><path d="M979.1 142.81c-108.74 0-196.89 12.41-196.89 27.72v222.16c0-15.31 88.15-27.71 196.89-27.71s196.9 12.4 196.9 27.71V170.53c0-15.31-88.16-27.72-196.9-27.72z" opacity=".5" fill="url(#D)"/><path d="M1027.46 435.83a5.51 5.51 0 003.8-3.55 6.92 6.92 0 00.19-3.09 6 6 0 00-5.56 5.67 5.67 5.67 0 000 1.17 3.6 3.6 0 001.17-.08z" fill="#ce5b1b"/><path d="M970.09 543.43a238.69 238.69 0 0015.44 20.35c10.72 12.5 22.79 23.09 34.52 26m-111.58-4.92l1.77-2.96m40.38-70.73l5.71-1.76" stroke="#7b7bf9" class="B C H"/><path d="M1061.16 435.18l-3.15 2.93" class="B D G"/><g class="C H B"><path d="M1023.18 533.76l11.5 12.06" stroke="#7b7bf9"/><path d="M782.21 392.69c0-15.31 88.15-27.71 196.89-27.71 88.35 0 163.11 8.19 188 19.47 5.75 2.6 8.85 5.37 8.85 8.24" stroke="#fff" stroke-width="2"/></g><g class="G"><path d="M1158.37 164c-8.54-2.64-19.95-5.06-33.65-7.18a5.36 5.36 0 00-6.18 5.29v199.8a7.88 7.88 0 006.36 7.74l27.83 5.48a7.89 7.89 0 009.41-7.74V169.07a5.35 5.35 0 00-3.77-5.07zM821 166v191.48a12.17 12.17 0 0014 12c12.6-2 30.46-4.29 52.37-6a12.18 12.18 0 0011.23-12.14V158.85a7.18 7.18 0 00-7.68-7.16c-24.77 1.75-46.55 4.22-64 7.2A7.18 7.18 0 00821 166z"/><path d="M934.59 388.3v71.19m-8.64-8.85v8.85m-85.29-66.48v53.89m6.81-49.79v27.09m154.44-167.94v22.99m-6.66-64.59v57.92" class="B D"/></g><path d="M1090.71 728.32c0 2.2-6.87 4-15.34 4s-15.35-1.78-15.35-4v-23h30.69z" fill="#ffc500"/><ellipse cx="1075.37" cy="705.32" rx="15.35" ry="2.06" class="E"/><g clip-path="url(#E)" class="C H M"><path d="M1091.15 722.17c0 2.2-7.31 4.13-15.78 4.13s-15.67-1.84-15.67-4" stroke="#fff"/></g><path d="M1076.44 694.53s-10-3.31 2-42c9.47-30.64 17.9-36.78 21-38a1.58 1.58 0 012 .66c1.67 2.92 5 13.34-5.19 43.16-9.05 26.39-14 36.35-19.81 36.18z" fill="url(#F)"/><path d="M1088.86 692.53a4.24 4.24 0 01-7-3.17c0-4.89 1.73-13.22 8.88-26.84 13.93-26.55 25.15-30.23 26.87-29 2.16 1.5-.26 11.33-12.94 35-7.15 13.29-11.57 20.36-15.81 24.01z" fill="url(#G)"/><path d="M1100.66 614.57c-15.62 36.06-21.89 64.71-24.35 80.06" stroke="#f4f4f4" class="B C L"/><path d="M1051.63 651.35c-4.82-3.57-9-1.63-9.37 4.36-.33 5.21.89 13.95 9.55 27.13 0 0 12.08 18.44 17.28 16.16s1.58-17.86-1.87-25.17c-2.51-5.33-8.75-17.41-15.59-22.48z" fill="url(#H)"/><g class="B C L"><path d="M1084.37 693.22c7.39-16.25 20.39-43 32.88-59.4m-72.72 16.07a176.51 176.51 0 0124.45 49.4" stroke="#f4f4f4"/><path d="M1068.88 699.09a61.24 61.24 0 011.36 7.85m6.12-12.52a39.69 39.69 0 00-.33 10.1m8.37-11.31s-2.51 6.28-2.88 10" stroke="#1e1e1e"/></g><path d="M842.96 810.69l-13.95 10.25v-50.57h13.95v40.32z"/></svg>